<?xml version="1.0" encoding="utf-8"?>
<!-- Generator: Adobe Illustrator 16.0.3, SVG Export Plug-In . SVG Version: 6.00 Build 0)  -->
<!DOCTYPE svg PUBLIC "-//W3C//DTD SVG 1.1//EN" "http://www.w3.org/Graphics/SVG/1.1/DTD/svg11.dtd">
<svg version="1.1" id="Layer_1" xmlns="http://www.w3.org/2000/svg" xmlns:xlink="http://www.w3.org/1999/xlink" x="0px" y="0px"
	 width="500px" height="500px" viewBox="0 0 500 500" enable-background="new 0 0 500 500" xml:space="preserve">
<g>
	<path fill-rule="evenodd" clip-rule="evenodd" d="M261.152,264.883c1.104,10.744-8.91,19.26-20.482,17.416
		c-10.384-1.652-17.323-8.283-19.07-18.221c-2.287-13.002,2.251-23.844,12.451-29.752c12.16-7.043,27.914-5.466,38.406,3.843
		c10.422,9.245,13.988,25.502,8.447,38.229c-3.764,8.637-10.191,14.959-17.561,20.48c-9.252,6.936-9.854,8.363-6.213,19.449
		c2.943,8.965,2.275,17.623-1.564,26.045c-2.963,6.492-2.51,12.611-0.547,19.43c2.34,8.113,3.02,16.709,3.52,25.268
		c-0.51-10.742-4.209-20.566-7.799-30.564c-1.419-3.951-0.715-9.273,0.604-13.477c3.119-9.939,3.336-19.344-0.813-29.088
		c-3.839-9.02-1.063-12.834,6.676-20.557c5.406-5.396,11.475-10.494,15.496-16.836c7.156-11.281,3.604-26.164-6.857-34.121
		c-9.98-7.594-24.33-7.021-33.148,1.452c-6.479,6.226-7.722,13.995-5.617,22.321c1.782,7.055,6.388,11.596,13.658,13.186
		C251.412,281.723,259.338,276.098,261.152,264.883z"/>
	<path fill-rule="evenodd" clip-rule="evenodd" d="M258.695,265.672c-0.771,7.008-4.002,10.51-10.551,11.785
		c-7.167,1.396-14.068-1.443-17.412-7.16c-4.193-7.176-3.466-17.537,1.672-23.756c5.79-7.013,16.935-9.533,26.468-5.989
		c13.068,4.862,19.965,21.392,12.844,33.61c-3.857,6.617-10.023,11.992-15.609,17.457c-5.012,4.902-10.254,9.471-9.221,17.348
		c0.374,2.85,1.333,5.68,2.395,8.375c2.816,7.139,3.511,14.242,0.778,21.59c-3.2,8.604-2.703,16.785,1.249,25.393
		c2.938,6.395,3.705,13.785,5.439,20.73c-0.412,0.113-0.824,0.227-1.238,0.338c-0.301-1.168-0.566-2.352-0.906-3.51
		c-1.449-4.922-1.977-10.416-4.569-14.641c-6.257-10.195-7.026-20.557-3.512-31.611c1.741-5.473,0.052-10.479-2.027-15.453
		c-6.333-15.156-4.511-22.646,7.69-33.77c4.16-3.793,8.277-7.791,11.627-12.281c4.748-6.371,4.352-14.354-0.129-20.711
		c-4.195-5.957-11.558-8.502-19.201-6.638c-8.235,2.009-12.821,9.917-10.931,18.845c1.376,6.506,7.769,10.473,15.03,9.342
		C253.959,274.127,257.066,270.834,258.695,265.672z"/>
	<path fill-rule="evenodd" clip-rule="evenodd" d="M285.229,167.713c5.74-13.242,15.766-23.785,29.664-29.538
		c27.336-11.314,54.506-11.275,80.34,4.796c5.646,3.514,10.475,8.319,15.918,12.2c7.018,5.004,14.27,9.675,20.408,13.808
		c-6.588-0.095-13.559-3.847-20.668-7.478c-12.33-6.296-24.332-13.781-37.365-18.033c-23.539-7.681-46.967-4.805-68.461,7.628
		C297.555,155.44,291.52,162.338,285.229,167.713z"/>
	<path fill-rule="evenodd" clip-rule="evenodd" d="M71.624,168.37c12.363-3.523,21.127-12.441,30.463-20.327
		c26.448-22.338,66.913-21.64,92.605-7.369c11.814,6.563,22.064,18.582,24.495,28.383c-20.505-31.303-73.662-38.977-110.752-16.242
		c-6.727,4.123-13.568,8.133-20.664,11.56c-4.919,2.375-10.364,3.661-15.575,5.432C72.004,169.329,71.814,168.849,71.624,168.37z"/>
	<path fill-rule="evenodd" clip-rule="evenodd" d="M217.65,171.179c-25.677-21.511-54.38-24.825-84.822-16.771
		c-13.543,3.583-26.384,9.757-39.697,14.302c-6.069,2.072-12.513,3.042-19.013,3.743c14.525-3.54,26.115-12.78,38.938-19.478
		c25.833-13.494,52.208-14.554,79.019-3.583C202.619,153.706,211.042,160.934,217.65,171.179z"/>
	<path fill-rule="evenodd" clip-rule="evenodd" d="M429.24,172.408c-7.395,0.297-15.705-2.937-24.143-5.834
		c-15.223-5.226-30.217-11.828-45.885-14.865c-22.041-4.272-54.516,0.938-71.332,19.407c2.248-6.303,10.381-14.569,19.783-19.4
		c16.84-8.653,34.752-11.337,53.451-8.745c15.752,2.183,29.543,9.247,43.135,17.071C412.643,164.873,421.625,168.68,429.24,172.408z
		"/>
	<path fill-rule="evenodd" clip-rule="evenodd" d="M314.232,187.901c5.203-1.072,8.139-0.798,9.693,4.558
		c2.477,8.535,10.869,13.88,19.238,13.491c8.514-0.396,16.33-6.709,18.035-15.73c0.986-5.235,4.01-6.502,8.934-7.264
		c0.824,10.267-2.559,18.513-10.119,24.709c-9.059,7.424-19.447,8.584-29.963,3.606
		C320.527,206.761,315.496,198.741,314.232,187.901z"/>
	<path fill-rule="evenodd" clip-rule="evenodd" d="M134.222,183.148c4.476,0.646,7.936,0.814,8.811,6.2
		c1.466,8.999,9.063,15.8,17.416,16.553c8.912,0.802,17.315-4.352,20.197-13.488c1.648-5.218,4.536-5.651,9.359-4.518
		c-0.268,9.753-5.199,16.735-12.888,21.955c-8.782,5.961-21.475,5.671-30.161-0.346C137.91,203.238,134,194.536,134.222,183.148z"/>
	<path fill-rule="evenodd" clip-rule="evenodd" d="M253.664,112.93c10.402,1.113,16.918,7.917,17.061,17.564
		c0.145,9.686-6.215,17.502-15.449,18.992c-8.961,1.444-17.831-3.878-20.584-12.585c-1.95-6.166-1.132-11.951,3.61-16.679
		c4.768-4.757,10.803-5.245,16.807-3.614c4.793,1.302,7.711,5.037,8.391,10.109c0.668,4.997,0.131,9.682-4.5,12.839
		c-3.482,2.376-7.085,2.44-10.599,0.107c-3.101-2.058-3.839-4.916-2.511-8.808c1.124,5.952,3.869,8.623,7.761,7.929
		c3.904-0.695,6.709-4.823,6.047-8.897c-0.764-4.687-5.9-8.361-10.72-7.49c-4.94,0.895-7.921,4.125-8.986,8.839
		c-1.183,5.234,0.911,9.475,5.161,12.541c5.421,3.912,12.479,3.45,17.604-0.949c5.592-4.8,7.283-13.214,3.967-19.711
		C264.264,118.309,260.463,115.416,253.664,112.93z"/>
	<path fill-rule="evenodd" clip-rule="evenodd" d="M405.779,177.157c-7.246-5.47-15.867-6.863-24.336-6.124
		c-7.713,0.673-15.564,2.736-22.756,5.656c-9.699,3.939-19.236,3.82-29.271,2.624c-6.752-0.806-13.797-1.092-20.482-0.097
		c-11.207,1.67-18.521,8.984-23.309,20.312c2.377-14.57,14.416-24.948,29.279-25.492c7.342-0.269,14.746,0.388,22.08,1.071
		c7.078,0.659,13.559-0.771,19.975-3.648c17.779-7.973,34.744-5.985,50.842,4.706c0.99,0.657,1.898,1.447,2.789,2.239
		c0.205,0.181,0.172,0.629,0.404,1.619c-1.58-0.574-2.83-1.025-4.078-1.476C406.537,178.083,406.156,177.62,405.779,177.157z"/>
	<path fill-rule="evenodd" clip-rule="evenodd" d="M94.448,178.601c13.447-12.309,34.338-15.462,51.973-7.571
		c9.105,4.073,18.082,4.081,27.617,3.632c8.274-0.389,16.891-0.34,24.874,1.551c11.053,2.619,17.257,11.081,19.659,22.203
		c-0.637-1.196-1.276-2.391-1.911-3.586c-5.054-9.503-12.953-15.399-23.622-15.973c-8.663-0.466-17.421,1.136-26.131,1.05
		c-6.057-0.059-12.698-0.077-18.042-2.452C130.847,169.451,113.282,167.9,94.448,178.601z"/>
	<path fill-rule="evenodd" clip-rule="evenodd" d="M405.779,177.157c0.377,0.462,0.758,0.926,1.137,1.389
		c-1.346-0.099-2.758,0.037-4.023-0.332c-12.088-3.504-24.225-2.836-35.217,2.663c-14.563,7.283-29.145,7.283-44.625,4.735
		c-6.684-1.1-14.297-0.599-20.656,1.589c-5.547,1.908-9.928,7.209-13.506,9.989c2.191-9.389,13.506-17.272,27.871-16.973
		c7.182,0.15,14.342,1.377,21.516,2.047c7.521,0.701,14.592-0.645,21.492-3.928c13.465-6.405,27.361-7.445,41.537-2.225
		C402.73,176.637,404.283,176.817,405.779,177.157z"/>
	<path fill-rule="evenodd" clip-rule="evenodd" d="M216.729,199.283c-8.226-13.695-20.795-16.291-35.018-13.888
		c-14.958,2.527-29.639,3.997-43.5-4.223c-1.304-0.773-2.885-1.083-4.346-1.584c-10.982-3.761-22.088-4.574-33.417-1.464
		c8.042-4.682,16.801-6.032,25.845-5.025c4.734,0.527,9.861,1.194,13.923,3.42c13.283,7.277,27.051,6.356,41.148,4.076
		c15.276-2.471,27.904,3.382,34.046,15.541C215.924,197.149,216.293,198.233,216.729,199.283z"/>
	<path fill-rule="evenodd" clip-rule="evenodd" d="M403.193,194.934c-8.717,7.885-16.488,17.333-26.357,23.319
		c-18.385,11.15-38.313,10.079-57.996,2.224c-6.352-2.534-12.734-4.987-18.986-8.188c6.816,1.818,13.721,3.37,20.434,5.508
		c14.424,4.596,29.047,6.342,43.482,1.211c7.125-2.532,13.801-6.761,20.105-11.062c6.322-4.315,11.932-9.673,17.854-14.575
		C402.217,193.892,402.705,194.412,403.193,194.934z"/>
	<path fill-rule="evenodd" clip-rule="evenodd" d="M113.005,200.485c13.746,16.335,31.57,23.418,52.449,21.036
		c11.475-1.31,22.654-5.188,33.98-7.849c1.811-0.424,3.694-0.532,5.538-0.785c-7.405,2.95-14.627,6.223-22.107,8.731
		c-22.028,7.387-43.321,7.001-62.343-8.087c-6.942-5.506-12.975-12.161-19.422-18.29c0.395-0.459,0.79-0.917,1.184-1.377
		c3.583,2.216,7.167,4.432,10.75,6.648L113.005,200.485z"/>
	<path fill-rule="evenodd" clip-rule="evenodd" d="M113.034,200.513c-3.425-3.18-6.851-6.36-10.277-9.538
		c0.025-0.165,0.05-0.329,0.076-0.492c3.69,2.011,7.49,3.847,11.044,6.076c5.235,3.286,10.167,7.06,15.448,10.26
		c17.315,10.488,35.791,10.341,54.821,5.956c6.768-1.56,13.756-2.154,20.702-2.517c-10.085,2.646-20.086,5.688-30.273,7.857
		c-20.913,4.454-39.899,0.566-56.083-14.185c-1.571-1.432-3.646-2.31-5.487-3.445L113.034,200.513z"/>
	<path fill-rule="evenodd" clip-rule="evenodd" d="M300.594,209.431c10.084,1.744,20.158,3.569,30.26,5.213
		c17.504,2.849,33.713-0.265,48.488-10.443c7.24-4.988,14.793-9.517,22.205-14.253c0.236,0.371,0.473,0.741,0.709,1.112
		c-9.123,7.12-17.639,15.263-27.512,21.119c-15.141,8.982-31.916,9.594-48.828,5.149c-8.436-2.216-16.818-4.631-25.221-6.955
		C300.66,210.059,300.627,209.746,300.594,209.431z"/>
	<path fill-rule="evenodd" clip-rule="evenodd" d="M176.695,187.907c0.169,8.834-6.268,14.386-14.392,14.485
		c-8.021,0.096-14.802-6.008-16.137-16.012c2.67,2.288,4.806,3.478,6.041,5.282c5.835,8.534,13.898,8.649,20.046,0.222
		C173.399,190.314,175.199,189.221,176.695,187.907z"/>
	<path fill-rule="evenodd" clip-rule="evenodd" d="M358.119,187.057c-1.344,9.642-7.896,15.356-16.002,15.324
		c-8.002-0.03-14.453-5.697-15.518-14.955c2.361,1.72,4.359,2.566,5.449,4.07c6.523,9.032,14.016,8.888,20.586-0.389
		C353.688,189.627,355.682,188.814,358.119,187.057z"/>
</g>
</svg>
